<?xml version="1.0" encoding="UTF-8"?>
<svg width="179px" height="208px" viewBox="0 0 179 208" version="1.1" xmlns="http://www.w3.org/2000/svg" xmlns:xlink="http://www.w3.org/1999/xlink">
    <!-- Generator: Sketch 54 (76480) - https://sketchapp.com -->
    <title>noun_Rock n Roll_40395</title>
    <desc>Created with Sketch.</desc>
    <g id="Product" stroke="none" stroke-width="1" fill="none" fill-rule="evenodd">
        <g id="Checkout-sucess" transform="translate(-604.000000, -417.000000)" fill="#000000" fill-rule="nonzero">
            <g id="noun_Rock-n-Roll_40395" transform="translate(604.000000, 417.000000)">
                <path d="M159.271794,13.4775999 C148.381696,13.4775999 139.525616,22.3169411 139.525616,33.1894507 L139.525616,86.6477024 C136.564589,84.8750432 133.138558,83.791086 129.436525,83.791086 C125.509489,83.791086 121.867456,84.973857 118.783429,86.9561212 C116.73741,78.2545203 108.94034,71.7358056 99.6042552,71.7358056 C95.9082218,71.7358056 92.4821909,72.8197628 89.5211641,74.592422 L89.5211641,19.7118507 C89.5211641,8.8423356 80.656084,0 69.7749857,0 C58.8848873,0 50.0228072,8.83934124 50.0228072,19.7118507 L50.0228072,112.689623 L36.7446872,90.5014396 C31.188637,81.1500633 19.0595274,78.0479097 9.69044279,83.5874698 C5.15140177,86.2704135 1.93237269,90.5583324 0.627360895,95.657722 C-0.686650978,100.754117 0.0813559619,106.057123 2.7633802,110.584591 L59.1698899,205.625475 C60.069898,207.149603 61.6779125,207.994011 63.3339275,207.994011 C64.1709351,207.994011 65.0109427,207.781412 65.7819496,207.323275 C68.0829704,205.957849 68.8359772,203.002419 67.479965,200.711736 L11.0734553,105.670851 C9.7024429,103.356213 9.31243937,100.649315 9.98444544,98.04123 C10.6504515,95.4331452 12.2914663,93.2472648 14.6074872,91.8788437 C19.4015305,89.0461822 25.6025866,90.6331913 28.4376122,95.4241622 L50.7038134,132.644017 C50.8028143,132.811701 50.9678158,132.910515 51.0818168,133.060233 C51.2888187,133.32673 51.4958205,133.572268 51.7508228,133.790856 C51.987825,133.988483 52.2338272,134.14419 52.5008296,134.293908 C52.767832,134.443625 53.0318344,134.581366 53.3288371,134.683174 C53.6408399,134.787977 53.9558428,134.832892 54.2828457,134.871818 C54.4748474,134.895773 54.648849,134.988598 54.8498508,134.988598 C54.9608518,134.988598 55.0598527,134.931706 55.1708537,134.922723 C55.4858566,134.904756 55.7858593,134.823909 56.1008621,134.737072 C56.421865,134.650236 56.7308678,134.560405 57.0248705,134.413682 C57.1208714,134.362778 57.2258723,134.362778 57.3218732,134.308879 C57.4898747,134.210066 57.5828755,134.054359 57.7298769,133.940574 C58.0088794,133.730969 58.2638817,133.518369 58.4858837,133.251871 C58.6838855,133.0243 58.8308868,132.790741 58.9748881,132.533226 C59.1368896,132.257745 59.2778908,131.982264 59.3798918,131.67684 C59.4848927,131.368421 59.5298931,131.062997 59.5688935,130.7426 C59.5928937,130.544973 59.6858945,130.3713 59.6858945,130.167684 L59.6858945,19.7118507 C59.6858945,14.1633076 64.2099354,9.64182886 69.7689856,9.64182886 C75.3280359,9.64182886 79.8520768,14.1633076 79.8520768,19.7118507 L79.8520768,91.4476563 L79.8520768,117.474606 L79.8520768,130.176667 C79.8520768,132.83865 82.0180963,134.997581 84.6791204,134.997581 C87.3461445,134.997581 89.512164,132.83865 89.512164,130.176667 L89.512164,117.474606 L89.512164,91.4476563 C89.512164,85.8961189 94.0302049,81.3776345 99.5952551,81.3776345 C105.160305,81.3776345 109.684346,85.8961189 109.684346,91.4476563 L109.684346,103.508925 L109.684346,117.474606 L109.684346,127.005643 C109.684346,129.664632 111.838366,131.820569 114.51139,131.820569 C117.172414,131.820569 119.338434,129.664632 119.338434,127.005643 L119.338434,117.474606 L119.338434,103.508925 C119.338434,97.9543936 123.862474,93.4389036 129.421525,93.4389036 C134.986575,93.4389036 139.510616,97.9543936 139.510616,103.508925 L139.510616,134.88679 C139.510616,137.548773 141.670635,139.707705 144.337659,139.707705 C147.004684,139.707705 149.170703,137.548773 149.170703,134.88679 L149.170703,103.505931 L149.170703,33.1894507 C149.170703,27.6349188 153.688744,23.1224231 159.253794,23.1224231 C164.815844,23.1224231 169.336885,27.6349188 169.336885,33.1894507 L169.336885,158.892549 L154.684753,201.616031 C153.820745,204.131291 155.158757,206.877116 157.68778,207.739491 C158.197785,207.919152 158.73479,208 159.250794,208 C161.257812,208 163.126829,206.739376 163.813835,204.745134 L178.73897,161.258091 C178.909972,160.758033 178.999973,160.23402 178.999973,159.698031 L178.999973,33.1894507 C179.017973,22.3169411 170.155893,13.4775999 159.271794,13.4775999 Z" id="Path"></path>
            </g>
        </g>
    </g>
</svg>